<?xml version="1.0" encoding="UTF-8" standalone="no"?>
<!-- Created with Inkscape (http://www.inkscape.org/) -->

<svg
   xmlns:dc="http://purl.org/dc/elements/1.1/"
   xmlns:cc="http://creativecommons.org/ns#"
   xmlns:rdf="http://www.w3.org/1999/02/22-rdf-syntax-ns#"
   xmlns:svg="http://www.w3.org/2000/svg"
   xmlns="http://www.w3.org/2000/svg"
   xmlns:sodipodi="http://sodipodi.sourceforge.net/DTD/sodipodi-0.dtd"
   xmlns:inkscape="http://www.inkscape.org/namespaces/inkscape"
   width="20.8125"
   height="14.78125"
   id="svg4029"
   version="1.1"
   inkscape:version="0.48.4 r9939"
   sodipodi:docname="cart.svg">
  <defs
     id="defs4031" />
  <sodipodi:namedview
     id="base"
     pagecolor="#ffffff"
     bordercolor="#666666"
     borderopacity="1.0"
     inkscape:pageopacity="0.0"
     inkscape:pageshadow="2"
     inkscape:zoom="22.4"
     inkscape:cx="14.448892"
     inkscape:cy="12.2215"
     inkscape:document-units="px"
     inkscape:current-layer="layer1"
     showgrid="false"
     inkscape:window-width="1366"
     inkscape:window-height="706"
     inkscape:window-x="-8"
     inkscape:window-y="-8"
     inkscape:window-maximized="1"
     fit-margin-top="0"
     fit-margin-left="0"
     fit-margin-right="0"
     fit-margin-bottom="0" />
  <metadata
     id="metadata4034">
    <rdf:RDF>
      <cc:Work
         rdf:about="">
        <dc:format>image/svg+xml</dc:format>
        <dc:type
           rdf:resource="http://purl.org/dc/dcmitype/StillImage" />
        <dc:title></dc:title>
      </cc:Work>
    </rdf:RDF>
  </metadata>
  <g
     inkscape:label="Capa 1"
     inkscape:groupmode="layer"
     id="layer1"
     transform="translate(-383.87946,-419.25727)">
    <path
       style="font-size:medium;font-style:normal;font-variant:normal;font-weight:normal;font-stretch:normal;text-indent:0;text-align:start;text-decoration:none;line-height:normal;letter-spacing:normal;word-spacing:normal;text-transform:none;direction:ltr;block-progression:tb;writing-mode:lr-tb;text-anchor:start;baseline-shift:baseline;color:#000000;fill:#ffffff;fill-opacity:1;stroke:none;stroke-width:1px;marker:none;visibility:visible;display:inline;overflow:visible;enable-background:accumulate;font-family:Sans;-inkscape-font-specification:Sans"
       d="m 401.16071,419.25727 -0.125,0.28125 -4.4375,9.53125 -9.03125,0 0,1 1.15625,0 c -0.72157,0.28582 -1.25,1.01734 -1.25,1.90625 0,1.13416 0.83947,2.0625 1.875,2.0625 1.03553,0 1.875,-0.92834 1.875,-2.0625 0,-0.88891 -0.52843,-1.62043 -1.25,-1.90625 l 4.8125,0 c -0.72157,0.28582 -1.25,1.01734 -1.25,1.90625 0,1.13416 0.83947,2.0625 1.875,2.0625 1.03553,0 1.875,-0.92834 1.875,-2.0625 0,-0.88606 -0.50081,-1.61834 -1.21875,-1.90625 l 0.875,0 0.3125,0 0.125,-0.28125 4.40625,-9.53125 2.90625,0 0,-1 -3.1875,0 -0.34375,0 z m -17.28125,0.875 0.375,0.71875 3.84375,6.65625 0.15625,0.25 0.28125,0 6.96875,0 0.34375,0 0.125,-0.3125 2.78125,-6.65625 0.25,-0.65625 -0.71875,0 -13.59375,0 -0.8125,0 z m 1.65625,0.9375 12,0 -2.375,5.71875 -6.3125,0 -3.3125,-5.71875 z"
       id="path3072"
       inkscape:connector-curvature="0"
       inkscape:export-filename="C:\Users\Usuario\Documents\GitHub\exos.maquetando\img\cart.svg.png"
       inkscape:export-xdpi="100"
       inkscape:export-ydpi="100" />
  </g>
</svg>
